<?xml version="1.0" encoding="UTF-8"?>
<!DOCTYPE svg PUBLIC "-//W3C//DTD SVG 1.1//EN" "http://www.w3.org/Graphics/SVG/1.1/DTD/svg11.dtd">
<!-- Creator: CorelDRAW X7 -->
<svg xmlns="http://www.w3.org/2000/svg" xml:space="preserve" width="10.7623mm" height="10.4379mm" version="1.1" style="shape-rendering:geometricPrecision; text-rendering:geometricPrecision; image-rendering:optimizeQuality; fill-rule:evenodd; clip-rule:evenodd"
viewBox="0 0 223 216"
 xmlns:xlink="http://www.w3.org/1999/xlink">
 <defs>
  <style type="text/css">
   <![CDATA[
    .str0 {stroke:#373435;stroke-width:4.14651}
    .fil3 {fill:#A45E4D}
    .fil1 {fill:#F58634}
    .fil2 {fill:#ED3237}
    .fil0 {fill:url(#id0)}
    .fil4 {fill:url(#id1)}
    .fil5 {fill:url(#id2)}
   ]]>
  </style>
  <linearGradient id="id0" gradientUnits="userSpaceOnUse" x1="186.549" y1="2.07459e-006" x2="186.549" y2="167.948">
   <stop offset="0" style="stop-opacity:1; stop-color:#BF3538"/>
   <stop offset="0.352941" style="stop-opacity:1; stop-color:#C93030"/>
   <stop offset="0.490196" style="stop-opacity:1; stop-color:#FBAE98"/>
   <stop offset="1" style="stop-opacity:1; stop-color:#D42B28"/>
  </linearGradient>
  <linearGradient id="id1" gradientUnits="userSpaceOnUse" x1="178.192" y1="150.518" x2="173.193" y2="159.067">
   <stop offset="0" style="stop-opacity:1; stop-color:#5C5B5B"/>
   <stop offset="0.368627" style="stop-opacity:1; stop-color:#8C8989"/>
   <stop offset="1" style="stop-opacity:1; stop-color:#BDB7B7"/>
  </linearGradient>
  <linearGradient id="id2" gradientUnits="userSpaceOnUse" xlink:href="#id1" x1="100.712" y1="136.393" x2="111.122" y2="142.198">
  </linearGradient>
 </defs>
 <g id="Layer_x0020_1">
  <metadata id="CorelCorpID_0Corel-Layer"/>
  <path class="fil0" d="M189 47c4,9 13,13 20,19 6,6 12,15 14,34 1,19 -1,48 -7,60 -5,12 -13,8 -28,1 -15,-7 -36,-17 -38,-26 -2,-9 16,-17 19,-33 4,-17 -6,-42 -4,-61 2,-20 17,-35 22,-39 6,-5 1,0 -1,10 -2,10 -2,25 3,35z"/>
  <polygon class="fil1 str0" points="82,145 99,169 152,169 109,184 126,208 82,193 39,208 56,184 12,169 66,169 "/>
  <polygon class="fil2 str0" points="32,154 80,165 117,147 109,172 157,184 104,188 96,213 71,190 19,194 56,176 "/>
  <polygon class="fil3 str0" points="58,166 83,172 103,163 99,176 124,182 96,184 92,197 79,185 51,187 71,178 "/>
  <path class="fil4" d="M212 162l-2 10 -7 7 -60 -32c0,-1 -1,-2 -1,-2l0 0c0,0 0,-1 0,-1l0 0 -1 0c0,0 0,-1 0,-1 0,0 -1,-1 -1,-1 0,0 -1,-2 0,-1 0,-1 0,-2 -1,-3l0 0 1 0 0 -2c0,0 0,-1 0,-2 1,0 1,1 2,1l0 0c1,0 1,0 1,0 2,1 6,1 8,1 1,0 3,-2 3,-3l0 -3 58 32z"/>
  <path class="fil5" d="M135 110l-41 75 -13 -2 -4 -7 44 -82 0 0 0 0c1,0 1,0 2,0 0,0 1,0 2,0l0 3c0,0 0,0 0,0 0,1 -1,3 -1,3 0,1 -1,3 -1,4l0 0c0,0 0,1 0,1l0 0c0,3 4,3 6,3l0 0c0,0 2,0 3,0 1,1 2,1 3,2z"/>
 </g>
</svg>
