<?xml version="1.0" encoding="UTF-8"?>
<!DOCTYPE svg PUBLIC "-//W3C//DTD SVG 1.1//EN" "http://www.w3.org/Graphics/SVG/1.1/DTD/svg11.dtd">
<!-- Creator: CorelDRAW X7 -->
<svg xmlns="http://www.w3.org/2000/svg" xml:space="preserve" width="10.1532mm" height="10.3655mm" version="1.1" style="shape-rendering:geometricPrecision; text-rendering:geometricPrecision; image-rendering:optimizeQuality; fill-rule:evenodd; clip-rule:evenodd"
viewBox="0 0 204 209"
 xmlns:xlink="http://www.w3.org/1999/xlink">
 <defs>
  <style type="text/css">
   <![CDATA[
    .str0 {stroke:#373435;stroke-width:4.02308}
    .fil3 {fill:#A45E4D}
    .fil1 {fill:#F58634}
    .fil2 {fill:#ED3237}
    .fil0 {fill:url(#id0)}
    .fil4 {fill:url(#id1)}
   ]]>
  </style>
  <linearGradient id="id0" gradientUnits="userSpaceOnUse" x1="-5.68434e-014" y1="40.1815" x2="184.482" y2="40.1815">
   <stop offset="0" style="stop-opacity:1; stop-color:#BF3538"/>
   <stop offset="0.352941" style="stop-opacity:1; stop-color:#C93030"/>
   <stop offset="0.490196" style="stop-opacity:1; stop-color:#FBAE98"/>
   <stop offset="1" style="stop-opacity:1; stop-color:#D42B28"/>
  </linearGradient>
  <linearGradient id="id1" gradientUnits="userSpaceOnUse" x1="141.966" y1="85.1524" x2="160.973" y2="95.5159">
   <stop offset="0" style="stop-opacity:1; stop-color:#5C5B5B"/>
   <stop offset="0.368627" style="stop-opacity:1; stop-color:#8C8989"/>
   <stop offset="1" style="stop-opacity:1; stop-color:#BDB7B7"/>
  </linearGradient>
 </defs>
 <g id="Layer_x0020_1">
  <metadata id="CorelCorpID_0Corel-Layer"/>
  <path class="fil0" d="M51 38c11,-5 15,-14 21,-22 7,-8 17,-14 38,-16 20,-1 52,2 66,8 13,6 9,15 1,31 -8,16 -18,39 -28,41 -10,2 -19,-17 -37,-21 -19,-4 -46,7 -67,5 -22,-3 -38,-19 -43,-25 -5,-5 0,0 11,2 12,2 28,2 38,-3z"/>
  <polygon class="fil1 str0" points="105,131 123,157 182,157 135,173 153,200 105,183 58,200 76,173 29,157 87,157 "/>
  <polygon class="fil2 str0" points="50,140 102,153 144,133 135,161 187,173 129,177 120,205 93,180 35,185 77,165 "/>
  <polygon class="fil3 str0" points="79,154 107,160 128,150 123,165 151,171 121,173 116,188 102,175 71,177 93,167 "/>
  <polygon class="fil4" points="185,6 197,8 204,16 118,175 103,172 99,164 "/>
 </g>
</svg>
